<svg xmlns="http://www.w3.org/2000/svg" xmlns:xlink="http://www.w3.org/1999/xlink" fill="none" version="1.1" width="100" height="100" viewBox="0 0 100 100"><defs><clipPath id="master_svg0_22_2917"><rect x="0" y="0" width="100" height="100" rx="0"/></clipPath><linearGradient x1="0" y1="0.4999869465827942" x2="1.0000360012054443" y2="0.4999869465827942" id="master_svg1_22_4024"><stop offset="0%" stop-color="#47BEFF" stop-opacity="1"/><stop offset="100%" stop-color="#2579E6" stop-opacity="1"/></linearGradient></defs><g><g clip-path="url(#master_svg0_22_2917)"><g><rect x="3" y="15" width="93" height="74" rx="0" fill="#FFFFFF" fill-opacity="1"/></g><g><path d="M78.9542,0L21.0396,0C9.42061,0,0,9.42061,0,21.0396L0,78.9604C0,90.5794,9.42061,100,21.0396,100L78.9542,100C90.5732,100,99.9938,90.5856,99.9938,78.9604L99.9938,21.0396C100,9.42061,90.5732,0,78.9542,0ZM69.1362,70.8129C59.1567,72.5579,37.8687,76.2715,26.3926,78.2836C25.9144,78.3643,25.7468,77.6812,26.2063,77.5321L46.2957,70.9681C46.9229,70.7632,46.8857,69.8566,46.2398,69.7137L35.1674,67.1241C34.4408,66.9503,34.4408,65.9194,35.1736,65.7579C36.2727,65.5157,37.5148,65.2363,38.8685,64.9258C38.9865,64.5532,39.1356,64.1868,39.3405,63.7832C39.4399,63.5906,39.4461,63.3547,39.4585,63.1125C39.4647,62.9448,39.4709,62.7709,39.5082,62.6033C39.5827,62.2555,39.7069,61.8891,39.9118,61.4296C40.036,61.1625,40.1664,60.8955,40.2968,60.6409C40.5204,60.2,40.7502,59.7404,40.9178,59.2561C40.9986,59.0325,41.1041,58.8214,41.2408,58.6288C41.5388,58.2066,41.5078,57.629,41.4767,57.0763C41.4643,56.9211,41.4581,56.7658,41.4581,56.623C41.4581,56.6044,41.3898,54.8594,41.2035,54.0893C40.9551,53.8099,40.7936,53.4435,40.7378,53.0336C40.7253,52.9963,40.7067,52.9591,40.6757,52.9405C40.6198,52.9094,40.5515,52.9094,40.508,52.9529C40.3589,53.0771,40.2099,53.1826,40.0546,53.2634L40.036,53.2758L40.0174,53.282C39.6137,53.3565,39.0859,53.2075,38.6201,52.8783C38.1358,52.5368,37.8066,52.0835,37.7383,51.6674C37.7073,51.4749,37.6762,51.2824,37.639,51.0899L37.3719,49.556C37.3533,49.3262,37.3968,49.0778,37.4464,48.8418C37.4651,48.7301,37.4837,48.6245,37.4961,48.5313L37.5085,48.463C37.5644,48.0221,37.6141,47.5998,37.7632,47.1713C37.8066,47.0596,37.8377,46.9416,37.8749,46.8112C37.9495,46.5503,38.0302,46.2833,38.142,46.0784L38.8313,44.0787C38.881,43.9545,38.9182,43.8303,38.9617,43.7061C39.0238,43.5074,39.03,43.2714,39.0424,43.0293C39.0611,42.6753,39.0673,42.3027,39.2722,42.017C39.4026,41.8369,39.502,41.6444,39.6075,41.3712L39.6324,41.2967C39.7566,40.9737,39.887,40.6446,40.0981,40.3465C40.421,39.9677,40.8123,39.7069,41.2532,39.5765C42.3399,39.266,43.464,39.8125,43.8924,40.0671C44.0291,40.1478,44.1409,40.2596,44.2216,40.4024L44.7184,41.3029C44.8302,41.5078,44.824,41.7562,44.6998,41.9549L44.6004,42.1102C44.5321,42.2219,44.5259,42.3586,44.5818,42.4766L44.8923,43.1286C44.9668,43.2839,44.973,43.4577,44.9109,43.6068L44.4824,44.6625C44.4762,44.6749,44.4762,44.6811,44.4762,44.6873C44.4762,44.6997,44.4762,44.706,44.4824,44.7122C44.4762,44.7122,44.4762,44.7122,44.4824,44.7122C44.4948,44.7246,44.5134,44.737,44.5569,44.7246L44.7556,44.6004L44.7618,44.6004L45.4139,44.2029C45.4201,44.1471,45.4263,44.0104,45.4139,43.7248Q45.4139,43.7248,45.4139,43.7186C45.4077,43.6192,45.4015,43.495,45.3953,43.3584C45.2835,42.0667,46.0287,41.6568,46.4758,41.5264C46.5628,41.5016,46.6311,41.4892,46.6994,41.4767C47.724,41.2656,48.432,42.2282,48.6866,42.6504C48.7363,42.725,48.7673,42.8119,48.7859,42.9051C48.7984,42.9609,48.8046,43.0293,48.8046,43.0851L48.7984,43.1659L48.7797,43.7993C48.8356,43.88,48.8667,43.9732,48.8543,44.0725C48.8356,44.1905,48.7673,44.2899,48.668,44.3396C48.4568,44.5134,48.3326,44.9854,48.2829,45.2276C48.2829,45.2462,48.2767,45.2587,48.2767,45.2711L48.4692,45.5878L48.5934,45.7803L47.96,46.1964C47.7737,46.3206,47.6992,46.5628,47.7799,46.7677L48.2457,47.9414C48.6121,47.842,49.941,47.4694,50.8911,47.1962L51.0588,47.1465C51.0588,47.1217,51.065,47.0968,51.0774,47.072Q51.0774,47.072,51.0712,47.072C51.1271,46.8981,51.2948,46.7366,51.5246,46.5814C51.6053,46.451,51.686,46.3516,51.7854,46.2771L51.7854,46.2709C51.5742,46.3206,51.5929,46.2709,51.568,46.1777C51.5432,46.0846,51.5804,46.0163,51.6736,45.9914L52.543,45.7368C52.6362,45.712,52.7169,45.6933,52.7479,45.7927C52.7728,45.8859,52.6983,45.9169,52.6051,45.948L52.4933,45.979C52.5244,45.9728,52.6237,46.0349,52.6362,46.0722C52.6424,46.0908,52.6424,46.1156,52.6486,46.1405C52.7417,46.1591,52.8411,46.1964,52.9218,46.246C53.1081,46.3578,53.2323,46.5441,53.2758,46.7615L53.2882,46.8236C53.3317,47.0533,53.2696,47.2831,53.1267,47.457L53.1205,47.4632L53.2323,47.37L53.3751,47.606L53.1019,47.7178L53.1019,47.724C53.1081,47.7364,53.1826,47.7551,53.1951,47.7923C53.2075,47.8296,53.1516,47.8917,53.1516,47.9041L53.1702,47.9662C53.1764,47.9786,53.2509,47.9973,53.2634,48.0345C53.2758,48.078,53.2199,48.1339,53.2199,48.1463L53.2385,48.2084C53.2447,48.2208,53.3192,48.2395,53.3317,48.2767C53.3441,48.3202,53.2882,48.3761,53.2882,48.3885L53.313,48.4382C53.3441,48.5375,53.2572,48.6183,53.1578,48.6804L56.654,60.7464C56.8341,60.7154,56.9894,60.703,57.1074,60.7216C57.1508,60.7278,57.1819,60.7527,57.2005,60.7961C60.5974,60.0323,63.8825,59.2933,66.7578,58.6537C67.5961,58.4674,67.9687,59.6597,67.18,59.9888L55.1947,64.9568C54.6109,65.199,54.6793,66.0498,55.2941,66.1989C60.0509,67.3104,65.1618,68.5028,69.1672,69.4405C69.9186,69.6144,69.8938,70.6763,69.1362,70.8129ZM82.6802,64.4662C81.1774,62.597,79.6932,60.7154,78.209,58.8338L78.2028,58.8275L74.5016,54.8097L71.6388,50.4005L69.5212,48.0842L69.0865,47.0782C67.298,44.7308,65.5095,42.3648,63.7397,39.9988L63.7335,39.9925Q63.1187,39.9925,61.7028,38.4276L59.2498,34.2917L59.3244,34.0185L59.4734,33.4596L58.4922,30.9321L56.9397,30.7458L56.9335,30.7396L56.6851,30.4043L55.6542,29.6529L52.7293,25.6784L51.152,26.0821L49.1275,28.5413L46.8484,32.0561L47.3949,33.6024L47.7551,35.6331L47.8358,35.7325C49.7237,38.1109,51.2948,40.0795,51.7233,40.6198L45.3394,35.8318Q43.9111,35.422,42.6753,35.422C41.4457,35.422,40.5949,34.4097,39.9305,33.7453Q39.266,33.0808,39.1728,34.9438L36.2914,38.6512L36.2914,38.6574L34.5029,41.8369Q34.5029,41.8369,34.5029,41.8431C34.4967,41.8493,33.5528,43.8366,33.1553,44.2278L33.1553,44.234C33.1181,44.3023,33.0746,44.3706,33.0373,44.4451C32.6585,45.3145,32.1741,48.3078,31.2799,49.202C30.2801,50.2018,29.597,50.4378,27.9451,53.282C27.9327,53.3006,27.9265,53.313,27.9141,53.3379C26.5168,55.7536,25.5667,57.4055,25.3245,57.8215C25.3058,57.8401,25.2996,57.8712,25.281,57.8898C25.2748,57.9085,25.2624,57.9147,25.2624,57.9271L23.8217,56.89L22.9833,56.4739L22.1449,55.5859L19.6175,58.5295L14.3886,65.6151L14.1154,67.0807L5.95541,77.8923C6.48326,76.8056,18.3568,52.3878,20.816,47.3328C21.0209,46.8981,21.6047,46.8298,21.909,47.1962Q22.5486,47.9476,23.4242,48.9785L24.5606,50.3136L26.6286,46.6621C29.3175,41.9239,35.3971,31.3544,37.9681,26.8832C38.5332,25.8958,39.918,25.7902,40.6322,26.6845C41.6072,27.9141,42.9547,29.6094,44.383,31.4041C46.1094,28.1935,49.3821,22.1387,51.4252,18.3568C52.1518,16.9968,54.0583,16.8788,54.9649,18.1271C56.6727,20.4744,58.3618,22.8405,60.0385,25.2127L68.7263,40.2782L69.3597,38.7754C77.9855,51.5494,86.5056,64.4414,94.0446,77.8985C90.1074,73.5329,86.369,69.012,82.6802,64.4662Z" fill="url(#master_svg1_22_4024)" fill-opacity="1" style="mix-blend-mode:passthrough"/></g></g></g></svg>